<svg viewBox="0 0 600 400" xmlns="http://www.w3.org/2000/svg">
  <rect width="600" height="400" fill="#fef3c7"/>
  <defs><linearGradient id="p1" x1="0%" y1="0%" x2="100%" y2="100%"><stop offset="0%" style="stop-color:#fcd34d"/><stop offset="100%" style="stop-color:#d97706"/></linearGradient></defs>
  <!-- Перфорированный лист -->
  <rect x="350" y="80" width="180" height="260" fill="url(#p1)" stroke="#78350f" stroke-width="2"/>
  <!-- Отверстия -->
  <circle cx="380" cy="110" r="6" fill="#78350f" opacity="0.6"/>
  <circle cx="420" cy="110" r="6" fill="#78350f" opacity="0.6"/>
  <circle cx="460" cy="110" r="6" fill="#78350f" opacity="0.6"/>
  <circle cx="500" cy="110" r="6" fill="#78350f" opacity="0.6"/>
  <circle cx="380" cy="160" r="6" fill="#78350f" opacity="0.6"/>
  <circle cx="420" cy="160" r="6" fill="#78350f" opacity="0.6"/>
  <circle cx="460" cy="160" r="6" fill="#78350f" opacity="0.6"/>
  <circle cx="500" cy="160" r="6" fill="#78350f" opacity="0.6"/>
  <circle cx="380" cy="210" r="6" fill="#78350f" opacity="0.6"/>
  <circle cx="420" cy="210" r="6" fill="#78350f" opacity="0.6"/>
  <circle cx="460" cy="210" r="6" fill="#78350f" opacity="0.6"/>
  <circle cx="500" cy="210" r="6" fill="#78350f" opacity="0.6"/>
  <circle cx="380" cy="260" r="6" fill="#78350f" opacity="0.6"/>
  <circle cx="420" cy="260" r="6" fill="#78350f" opacity="0.6"/>
  <circle cx="460" cy="260" r="6" fill="#78350f" opacity="0.6"/>
  <circle cx="500" cy="260" r="6" fill="#78350f" opacity="0.6"/>
  <!-- Блеск -->
  <ellipse cx="380" cy="150" rx="40" ry="80" fill="#ffffff" opacity="0.15"/>
</svg>
